<svg xmlns="http://www.w3.org/2000/svg" width="32" height="32" viewBox="0 0 32 32" fill="none">
  <defs>
    <linearGradient id="leafGradient" x1="0%" y1="0%" x2="100%" y2="100%">
      <stop offset="0%" style="stop-color:#10b981;stop-opacity:1" />
      <stop offset="50%" style="stop-color:#059669;stop-opacity:1" />
      <stop offset="100%" style="stop-color:#047857;stop-opacity:1" />
    </linearGradient>
    <linearGradient id="stemGradient" x1="0%" y1="0%" x2="100%" y2="100%">
      <stop offset="0%" style="stop-color:#84cc16;stop-opacity:1" />
      <stop offset="100%" style="stop-color:#65a30d;stop-opacity:1" />
    </linearGradient>
    <radialGradient id="glowGradient" cx="50%" cy="50%" r="50%">
      <stop offset="0%" style="stop-color:#ecfdf5;stop-opacity:0.8" />
      <stop offset="70%" style="stop-color:#d1fae5;stop-opacity:0.4" />
      <stop offset="100%" style="stop-color:#10b981;stop-opacity:0.1" />
    </radialGradient>
  </defs>
  
  <!-- Background circle with glow -->
  <circle cx="16" cy="16" r="15" fill="url(#glowGradient)" stroke="#10b981" stroke-width="0.5"/>
  
  <!-- Main leaf shape -->
  <path d="M16 6 C20 8, 24 12, 22 18 C20 22, 16 20, 16 16 C16 20, 12 22, 10 18 C8 12, 12 8, 16 6 Z" 
        fill="url(#leafGradient)" 
        stroke="#047857" 
        stroke-width="0.3"/>
  
  <!-- Leaf vein -->
  <path d="M16 8 L16 18" 
        stroke="#047857" 
        stroke-width="0.8" 
        stroke-linecap="round"/>
  
  <!-- Side veins -->
  <path d="M16 10 L19 12" 
        stroke="#047857" 
        stroke-width="0.4" 
        stroke-linecap="round" 
        opacity="0.7"/>
  <path d="M16 10 L13 12" 
        stroke="#047857" 
        stroke-width="0.4" 
        stroke-linecap="round" 
        opacity="0.7"/>
  <path d="M16 14 L19 15" 
        stroke="#047857" 
        stroke-width="0.4" 
        stroke-linecap="round" 
        opacity="0.7"/>
  <path d="M16 14 L13 15" 
        stroke="#047857" 
        stroke-width="0.4" 
        stroke-linecap="round" 
        opacity="0.7"/>
  
  <!-- Stem -->
  <rect x="15.2" y="18" width="1.6" height="6" 
        fill="url(#stemGradient)" 
        rx="0.8"/>
  
  <!-- Small sparkle -->
  <circle cx="22" cy="10" r="1" fill="#fbbf24" opacity="0.8"/>
  <path d="M22 8 L22 12 M20 10 L24 10" 
        stroke="#fbbf24" 
        stroke-width="0.5" 
        stroke-linecap="round" 
        opacity="0.8"/>
</svg>
